<?xml version="1.0" encoding="UTF-8"?>
<svg xmlns="http://www.w3.org/2000/svg" viewBox="0 0 1254 1254" width="1254" height="1254">
  <title>Beta logo</title>
  <g fill="#E4A347" fill-rule="evenodd">
    <path d="M 273,664 276,692 285,729 307,785 320,809 341,841 362,867 384,890 424,923 447,938 479,955 507,967 545,979 573,985 606,989 671,988 729,977 760,967 791,954 841,925 863,909 892,883 911,863 934,833 954,801 967,775 982,735 880,734 864,767 836,804 812,828 777,854 756,866 729,878 696,888 661,894 609,894 569,887 528,873 492,854 458,829 421,790 401,760 381,718 367,664 Z"/>
    <path d="M 824,644 823,608 815,572 799,535 779,506 756,483 723,461 685,446 647,440 626,440 590,446 566,454 533,472 504,496 490,513 475,536 462,564 279,564 273,600 452,602 452,645 457,672 472,712 494,745 520,771 550,791 584,805 624,812 647,812 671,809 695,803 713,796 741,781 760,767 776,751 788,735 626,734 592,724 570,710 555,695 545,681 535,659 530,631 531,608 537,587 554,558 569,543 590,529 608,522 624,519 646,519 666,523 689,533 709,547 728,569 740,595 740,603 601,604 593,610 588,624 589,646 593,655 600,661 632,663 816,663 822,662 Z"/>
    <path d="M 734,283 746,287 765,303 772,315 774,323 774,342 792,335 801,334 815,336 834,344 844,351 858,366 865,386 874,377 884,379 888,375 887,371 859,345 809,310 767,289 737,278 Z"/>
    <path d="M 680,266 632,262 599,264 560,270 512,284 483,296 452,312 420,333 400,349 376,371 358,391 336,420 320,446 300,488 297,500 402,500 407,495 422,470 438,450 465,423 497,399 530,381 565,368 595,361 630,358 629,350 Z"/>
  </g>
  <g fill="#313842" fill-rule="evenodd">
    <path d="M 941,442 927,448 911,464 909,468 910,469 908,470 902,485 902,505 908,519 917,528 924,533 936,538 949,538 955,536 956,538 950,548 977,564 986,549 985,548 990,543 1018,494 1024,486 1026,480 1024,480 1023,478 1001,465 994,472 988,459 976,448 961,442 Z"/>
    <path d="M 953,470 966,472 976,481 978,486 978,498 973,508 965,515 956,518 948,517 942,514 935,507 932,501 932,491 939,477 Z"/>
    <path d="M 901,376 898,378 887,393 877,388 872,397 870,398 871,399 864,407 873,415 846,456 841,467 842,477 850,488 851,487 854,491 876,501 890,481 888,478 883,476 879,472 879,460 882,458 896,437 896,434 901,431 915,440 929,420 928,421 927,418 920,415 914,410 914,408 925,391 Z"/>
    <path d="M 792,346 783,349 773,355 761,368 752,388 751,404 754,416 758,420 758,423 771,436 792,446 808,447 824,441 831,435 809,419 803,421 793,421 784,416 779,404 782,393 784,392 832,423 837,423 843,420 848,415 853,406 855,400 855,386 848,370 839,360 825,351 824,352 823,350 811,346 Z"/>
    <path d="M 793,377 799,372 805,370 817,373 823,378 826,383 827,389 825,396 822,397 795,380 Z"/>
    <path d="M 710,241 700,256 700,259 695,264 695,267 690,272 655,328 655,331 652,333 643,347 644,349 642,349 640,352 665,367 667,367 673,360 679,373 686,380 695,385 705,388 719,388 735,382 749,370 759,355 761,349 760,347 762,346 764,338 764,328 758,311 747,300 733,293 715,292 737,257 719,245 Z"/>
    <path d="M 716,313 723,316 733,328 731,341 728,347 719,356 713,359 704,360 703,358 701,359 697,355 696,356 691,351 692,350 688,343 688,334 693,325 692,324 702,315 707,313 Z"/>
  </g>
</svg>
